<?xml version="1.0" encoding="utf-8"?>
<!-- Generator: Adobe Illustrator 23.0.1, SVG Export Plug-In . SVG Version: 6.00 Build 0)  -->
<svg version="1.1" id="Layer_1" xmlns="http://www.w3.org/2000/svg" xmlns:xlink="http://www.w3.org/1999/xlink" x="0px" y="0px"
	 viewBox="0 0 45.44 22.85" style="enable-background:new 0 0 45.44 22.85;" xml:space="preserve">
<g>
	<path d="M6.1,11.26c-0.04,0-0.06-0.02-0.06-0.06l0.02-8.93c0-0.03,0.02-0.05,0.05-0.05h3.95c0.04,0,0.06,0.02,0.06,0.05v1.47
		c0,0.03-0.02,0.05-0.05,0.05H7.54V5.8h2.53c0.03,0,0.05,0.02,0.05,0.06l0.01,1.47c0,0.03-0.02,0.05-0.06,0.05H7.54v3.81
		c0,0.04-0.02,0.06-0.06,0.06H6.1z"/>
	<path d="M10.19,11.2l1.41-8.24c0.01-0.03,0.03-0.05,0.06-0.05h1.65c0.03,0,0.05,0.02,0.06,0.05l1.36,8.24
		c0.01,0.04-0.01,0.06-0.05,0.06h-1.27c-0.03,0-0.05-0.02-0.06-0.06l-0.13-0.88h-1.55l-0.13,0.88c-0.01,0.04-0.03,0.06-0.06,0.06
		h-1.27C10.2,11.26,10.19,11.24,10.19,11.2z M11.91,9.04h1.09l-0.47-3.37l-0.07-0.44l-0.05,0.44L11.91,9.04z"/>
	<path d="M15.81,11.26c-0.03,0-0.05-0.02-0.05-0.06V4.36h-1.48c-0.04,0-0.06-0.02-0.06-0.06l0.01-1.34c0-0.03,0.02-0.05,0.05-0.05
		h4.33c0.04,0,0.06,0.02,0.06,0.05V4.3c0,0.04-0.02,0.06-0.05,0.06h-1.49l0.01,6.84c0,0.04-0.02,0.06-0.05,0.06H15.81z"/>
	<path d="M19.05,11.26c-0.03,0-0.05-0.02-0.05-0.06l0.01-8.24c0-0.03,0.02-0.05,0.06-0.05h1.27c0.04,0,0.06,0.02,0.06,0.05
		l-0.01,3.26h1.71V2.96c0-0.03,0.02-0.05,0.05-0.05h1.27c0.04,0,0.06,0.02,0.06,0.05l0.02,8.24c0,0.04-0.02,0.06-0.06,0.06h-1.28
		c-0.04,0-0.06-0.02-0.06-0.06V7.67h-1.71v3.53c0,0.04-0.02,0.06-0.05,0.06H19.05z"/>
	<path d="M24.23,11.26c-0.03,0-0.05-0.02-0.05-0.06l0.01-8.24c0-0.03,0.02-0.05,0.05-0.05h3.66c0.03,0,0.05,0.02,0.05,0.06v1.34
		c0,0.03-0.02,0.05-0.05,0.05h-2.34v1.87h2.34c0.03,0,0.05,0.02,0.05,0.05l0.01,1.36c0,0.03-0.02,0.05-0.05,0.05h-2.35v2.1h2.35
		c0.03,0,0.05,0.02,0.05,0.06v1.37c0,0.03-0.02,0.05-0.05,0.05H24.23z"/>
	<path d="M28.79,11.26c-0.03,0-0.05-0.02-0.05-0.06l0.02-8.24c0-0.03,0.02-0.05,0.05-0.05h2.3c0.41,0,0.79,0.11,1.13,0.32
		c0.35,0.21,0.62,0.5,0.83,0.85s0.31,0.76,0.31,1.21c0,0.3-0.04,0.56-0.13,0.8c-0.08,0.24-0.18,0.44-0.3,0.6
		c-0.11,0.16-0.22,0.29-0.31,0.37c0.41,0.48,0.62,1.04,0.62,1.69l0.01,2.46c0,0.04-0.02,0.06-0.06,0.06h-1.29
		c-0.03,0-0.05-0.01-0.05-0.04V8.74c0-0.29-0.1-0.54-0.29-0.75s-0.43-0.32-0.71-0.32h-0.75l-0.01,3.53c0,0.04-0.02,0.06-0.05,0.06
		H28.79z M30.14,6.23h0.98c0.24,0,0.44-0.09,0.63-0.28c0.18-0.18,0.27-0.41,0.27-0.67c0-0.26-0.09-0.48-0.27-0.66
		c-0.18-0.18-0.39-0.28-0.63-0.28h-0.98V6.23z"/>
	<path d="M37.61,11.27c-0.49,0-0.91-0.13-1.28-0.38c-0.37-0.25-0.65-0.57-0.86-0.95c-0.21-0.38-0.31-0.76-0.31-1.14V7.95
		c0-0.29,0.07-0.58,0.2-0.86s0.3-0.52,0.52-0.74c-0.17-0.2-0.31-0.44-0.41-0.73c-0.1-0.29-0.15-0.61-0.15-0.97
		c0-0.45,0.1-0.86,0.3-1.23c0.2-0.37,0.47-0.66,0.81-0.88c0.34-0.22,0.72-0.32,1.14-0.32h1.67c0.06,0,0.09,0.03,0.09,0.09v1.38
		c0,0.05-0.02,0.08-0.07,0.08h-1.68c-0.21,0-0.39,0.09-0.54,0.26c-0.15,0.17-0.23,0.38-0.23,0.62c0,0.29,0.06,0.52,0.19,0.69
		c0.13,0.17,0.32,0.25,0.57,0.25h3.36c0.04,0,0.06,0.02,0.06,0.06v1.44c0,0.03-0.02,0.05-0.05,0.05h-1.09l-0.01,4.07
		c0,0.03-0.02,0.05-0.05,0.05L37.61,11.27z M37.61,9.71l0.8-0.01l0.01-2.56h-0.85c-0.17,0-0.33,0.05-0.48,0.14
		c-0.14,0.09-0.26,0.2-0.34,0.32c-0.08,0.12-0.12,0.24-0.12,0.35V8.8c0,0.13,0.04,0.27,0.12,0.41c0.08,0.14,0.19,0.26,0.34,0.36
		C37.24,9.67,37.41,9.71,37.61,9.71z"/>
	<path d="M7.93,21.38c-0.41,0-0.78-0.11-1.12-0.33C6.47,20.83,6.2,20.54,6,20.17c-0.2-0.36-0.3-0.77-0.3-1.21v-0.55
		c0-0.04,0.02-0.06,0.06-0.06h1.28c0.03,0,0.05,0.02,0.05,0.06v0.55c0,0.26,0.08,0.49,0.25,0.68c0.17,0.19,0.37,0.28,0.6,0.28
		c0.24,0,0.44-0.1,0.6-0.29s0.25-0.42,0.25-0.67c0-0.3-0.18-0.55-0.55-0.77c-0.12-0.07-0.31-0.18-0.57-0.34s-0.5-0.3-0.73-0.43
		c-0.42-0.26-0.73-0.58-0.93-0.97c-0.2-0.39-0.3-0.83-0.3-1.31c0-0.45,0.1-0.85,0.31-1.21c0.21-0.36,0.48-0.64,0.81-0.85
		c0.34-0.21,0.7-0.31,1.1-0.31c0.4,0,0.77,0.11,1.11,0.32c0.34,0.21,0.61,0.5,0.81,0.85c0.2,0.36,0.3,0.75,0.3,1.19v0.98
		c0,0.03-0.02,0.05-0.05,0.05H8.83c-0.03,0-0.05-0.02-0.05-0.05l-0.01-0.98c0-0.28-0.08-0.51-0.25-0.68
		c-0.17-0.18-0.36-0.26-0.59-0.26c-0.24,0-0.44,0.09-0.6,0.28c-0.17,0.19-0.25,0.41-0.25,0.67c0,0.26,0.05,0.48,0.16,0.66
		c0.11,0.18,0.3,0.34,0.58,0.5c0.04,0.02,0.11,0.07,0.22,0.13c0.11,0.06,0.23,0.13,0.36,0.2c0.13,0.08,0.25,0.14,0.35,0.2
		c0.1,0.06,0.17,0.09,0.19,0.11c0.38,0.22,0.68,0.5,0.9,0.82c0.22,0.32,0.33,0.72,0.33,1.19c0,0.46-0.1,0.87-0.3,1.23
		c-0.2,0.36-0.47,0.65-0.81,0.86C8.72,21.27,8.34,21.38,7.93,21.38z"/>
	<path d="M12.85,21.38c-0.41,0-0.78-0.11-1.12-0.33c-0.34-0.22-0.61-0.51-0.81-0.88c-0.21-0.36-0.31-0.77-0.31-1.21l0.01-3.8
		c0-0.44,0.1-0.84,0.3-1.2c0.2-0.36,0.47-0.65,0.81-0.86c0.34-0.22,0.71-0.32,1.12-0.32c0.41,0,0.78,0.11,1.12,0.32
		c0.33,0.22,0.6,0.5,0.8,0.86s0.3,0.76,0.3,1.2l0.01,3.8c0,0.44-0.1,0.84-0.3,1.21c-0.2,0.36-0.47,0.66-0.81,0.88
		C13.63,21.27,13.26,21.38,12.85,21.38z M12.85,19.93c0.23,0,0.43-0.1,0.6-0.29c0.17-0.2,0.26-0.42,0.26-0.67l-0.01-3.8
		c0-0.26-0.08-0.49-0.24-0.67c-0.16-0.18-0.36-0.28-0.6-0.28c-0.24,0-0.44,0.09-0.6,0.27c-0.17,0.18-0.25,0.41-0.25,0.68v3.8
		c0,0.26,0.08,0.49,0.25,0.68C12.41,19.83,12.61,19.93,12.85,19.93z"/>
	<path d="M15.82,21.26c-0.06,0-0.09-0.03-0.09-0.08L15.72,13c0-0.06,0.03-0.1,0.09-0.1h1.03l1.93,4.73L18.71,13
		c0-0.06,0.03-0.1,0.1-0.1h1.13c0.05,0,0.07,0.03,0.07,0.1l0.01,8.18c0,0.05-0.02,0.07-0.06,0.07h-1l-1.97-4.42l0.08,4.32
		c0,0.06-0.03,0.1-0.1,0.1H15.82z"/>
	<path d="M22.29,21.26c-0.03,0-0.05-0.02-0.05-0.06l0.02-8.24c0-0.03,0.02-0.05,0.05-0.05h2.19c0.43,0,0.82,0.11,1.16,0.33
		c0.34,0.22,0.61,0.51,0.81,0.87c0.2,0.36,0.3,0.75,0.3,1.18c0,0.34-0.07,0.66-0.22,0.96c-0.15,0.3-0.32,0.54-0.53,0.72
		c0.22,0.23,0.39,0.5,0.51,0.8c0.12,0.3,0.18,0.62,0.18,0.96c0,0.46-0.11,0.89-0.32,1.27c-0.21,0.38-0.5,0.69-0.86,0.92
		c-0.36,0.23-0.76,0.34-1.2,0.34H22.29z M23.62,19.8h0.71c0.27,0,0.51-0.11,0.71-0.32c0.2-0.21,0.3-0.46,0.3-0.75
		c0-0.29-0.1-0.54-0.3-0.74s-0.43-0.31-0.71-0.31h-0.7L23.62,19.8z M23.63,16.22h0.87c0.27,0,0.48-0.1,0.64-0.29
		c0.16-0.2,0.25-0.41,0.25-0.64c0-0.26-0.09-0.48-0.26-0.67c-0.18-0.19-0.38-0.28-0.63-0.28h-0.87V16.22z"/>
	<path d="M26.69,21.2l1.41-8.24c0.01-0.03,0.03-0.05,0.06-0.05h1.65c0.03,0,0.05,0.02,0.06,0.05l1.36,8.24
		c0.01,0.04-0.01,0.06-0.05,0.06h-1.27c-0.03,0-0.05-0.02-0.06-0.06l-0.13-0.88h-1.55l-0.13,0.88c-0.01,0.04-0.03,0.06-0.06,0.06
		h-1.27C26.7,21.26,26.69,21.24,26.69,21.2z M28.41,19.04h1.09l-0.47-3.37l-0.07-0.44l-0.05,0.44L28.41,19.04z"/>
	<path d="M31.82,21.26c-0.06,0-0.09-0.03-0.09-0.08L31.71,13c0-0.06,0.03-0.1,0.09-0.1h1.03l1.93,4.73L34.7,13
		c0-0.06,0.03-0.1,0.1-0.1h1.13c0.05,0,0.07,0.03,0.07,0.1l0.01,8.18c0,0.05-0.02,0.07-0.06,0.07h-1l-1.97-4.42l0.08,4.32
		c0,0.06-0.03,0.1-0.1,0.1H31.82z"/>
	<path d="M36.83,21.26c-0.04,0-0.06-0.02-0.06-0.06l0.02-8.24c0-0.03,0.02-0.05,0.05-0.05l2.13-0.01c0.42-0.01,0.8,0.1,1.15,0.31
		c0.35,0.22,0.62,0.51,0.83,0.87c0.21,0.36,0.31,0.77,0.31,1.21v3.44c0,0.46-0.11,0.89-0.32,1.27c-0.21,0.38-0.5,0.68-0.85,0.91
		c-0.36,0.22-0.76,0.34-1.21,0.35L36.83,21.26z M38.17,19.78h0.71c0.28,0,0.52-0.1,0.71-0.31s0.29-0.46,0.29-0.74v-3.46
		c0-0.26-0.09-0.48-0.27-0.67c-0.18-0.19-0.39-0.28-0.63-0.27l-0.8,0.01L38.17,19.78z"/>
</g>
<g>
</g>
<g>
</g>
<g>
</g>
<g>
</g>
<g>
</g>
</svg>
