<?xml version="1.0" encoding="utf-8"?>
<!-- Generator: Adobe Illustrator 23.0.1, SVG Export Plug-In . SVG Version: 6.00 Build 0)  -->
<svg version="1.1" id="press" xmlns="http://www.w3.org/2000/svg" xmlns:xlink="http://www.w3.org/1999/xlink" x="0px" y="0px"
	 viewBox="0 0 69 40" style="enable-background:new 0 0 69 40;" xml:space="preserve">
<g>
	<g>
		<path d="M3.57,14.92c2.61,4.15,5.81,8.91,6.32,13.9c0.29,2.82-1.93,5.21,0.81,7.13c1.58,1.11,3.09-1.49,1.51-2.59
			c0.32,0.22,0.74-2.24,0.77-2.64c0.14-1.78-0.25-3.62-0.77-5.31c-1.31-4.29-3.68-8.23-6.05-12C5.14,11.77,2.54,13.27,3.57,14.92
			L3.57,14.92z"/>
	</g>
</g>
<g>
	<g>
		<path d="M8.3,18.24c1.69-2.22,7.84-5.6,8.17-0.39c0.26,4.12-5.51,4.15-8.31,4.04c-1.93-0.07-1.93,2.93,0,3
			c2.88,0.11,6.48-0.03,8.86-1.88c2.13-1.66,3.05-4.61,2.07-7.15c-0.96-2.47-3.48-4.02-6.1-3.79c-3.02,0.27-5.5,2.33-7.27,4.65
			C4.54,18.27,7.14,19.76,8.3,18.24L8.3,18.24z"/>
	</g>
</g>
<g>
	<g>
		<path d="M19.46,26.18c1.2,2.01,2.18,4.08,2.94,6.3c0.84-0.49,1.67-0.97,2.51-1.46c-3.51-3.13,0.07-6.5,2.3-9.13
			c0.28-0.33,1.17-1.3,1.17-1.3c-1.37-1.54-2.02-1.9-1.97-1.07c0,0.07,0,0.13-0.01,0.2c-0.04,0.14-0.02,0.31-0.03,0.46
			c-0.11,1.93,2.89,1.92,3,0c0.16-2.86-2.2-2.74-3.78-0.99c-1.66,1.84-4.16,4.31-4.95,6.69c-0.86,2.59,0.16,5.49,2.15,7.26
			c1.04,0.93,3.02,0.05,2.51-1.46c-0.84-2.46-1.9-4.79-3.24-7.02C21.06,23.01,18.46,24.51,19.46,26.18L19.46,26.18z"/>
	</g>
</g>
<g>
	<g>
		<path d="M37.94,21.75c1.59-1.81,4.62-6.89,1.01-8.43c-1.51-0.65-3.34,0.52-4.5,1.44c-1.3,1.03-2.13,2.52-2.47,4.13
			c-0.62,2.96,0.35,7.36,3.45,8.53c3.23,1.22,7.36-1.21,9.48-3.5c1.31-1.42-0.81-3.54-2.12-2.12c-1.34,1.45-3.22,2.74-5.27,2.84
			c-1.75,0.09-2.41-1.56-2.66-3.15c-0.29-1.82,0.31-3.64,1.87-4.68c0.81-0.54,1.1-1.07,0.75,0.05c-0.33,1.05-0.94,1.95-1.66,2.77
			C34.55,21.07,36.66,23.2,37.94,21.75L37.94,21.75z"/>
	</g>
</g>
<g>
	<g>
		<path d="M49.79,9.61c-1.45,0.93-2.57,2.12-3.31,3.68c-0.36,0.76-0.19,1.58,0.54,2.05c1.65,1.08,3.17,0.34,4.9,0.75
			c1.61,0.38,0.62,1.56-0.41,2.12c-1.33,0.71-2.9,0.82-4.37,0.71c-1.93-0.14-1.92,2.86,0,3c3.28,0.23,8.72-1.05,8.72-5.24
			c0-1.46-0.88-2.75-2.23-3.27c-1.6-0.62-3.67,0.28-5.09-0.65c0.18,0.68,0.36,1.37,0.54,2.05c0.52-1.1,1.19-1.94,2.23-2.6
			C52.93,11.16,51.42,8.57,49.79,9.61L49.79,9.61z"/>
	</g>
</g>
<g>
	<g>
		<path d="M59.53,3.3c-2.43,0.61-5.72,2.94-3.6,5.75c1.03,1.37,2.7,1.26,4.18,1.73c1.31,0.41,2.75,1.31,1.8,2.89
			c-0.7,1.16-2.28,1.62-3.46,2.04c-1.8,0.65-1.03,3.55,0.8,2.89c2.97-1.06,6.88-3.21,5.89-7.05c-0.36-1.38-1.43-2.42-2.66-3.06
			c-0.8-0.42-1.7-0.49-2.51-0.83c-0.57-0.24-0.89,0.12-1.03-0.6c-0.14-0.72,0.81-0.73,1.4-0.88C62.2,5.72,61.41,2.83,59.53,3.3
			L59.53,3.3z"/>
	</g>
</g>
</svg>
