<svg version="1.1" xmlns="http://www.w3.org/2000/svg" xmlns:xlink="http://www.w3.org/1999/xlink" x="0px" y="0px" viewBox="0 0 705.03 125.32" style="enable-background:new 0 0 705.03 125.32;" xml:space="preserve">
          <g>
            <path class="st0" d="M4.27,120.39c-0.35,0-0.53-0.18-0.53-0.53l0.21-72.82c0-0.28,0.14-0.42,0.42-0.42H38.3
    		c0.35,0,0.53,0.14,0.53,0.42v11.98c0,0.28-0.14,0.42-0.42,0.42H16.67v16.43H38.4c0.28,0,0.42,0.18,0.42,0.53l0.11,11.98
    		c0,0.28-0.18,0.42-0.53,0.42H16.67v31.06c0,0.35-0.18,0.53-0.53,0.53H4.27z" />
            <path class="st0" d="M38.51,119.86l13.14-72.82c0.07-0.28,0.25-0.42,0.53-0.42h15.37c0.28,0,0.46,0.14,0.53,0.42l12.61,72.82
    		c0.07,0.35-0.07,0.53-0.42,0.53H68.51c-0.28,0-0.46-0.18-0.53-0.53l-1.17-7.74H52.39l-1.17,7.74c-0.07,0.35-0.25,0.53-0.53,0.53
    		H38.93C38.65,120.39,38.51,120.21,38.51,119.86z M54.51,100.78h10.18l-4.35-29.79l-0.64-3.92l-0.42,3.92L54.51,100.78z" />
            <path class="st0" d="M92.89,120.39c-0.28,0-0.42-0.18-0.42-0.53V59.44H78.68c-0.35,0-0.53-0.18-0.53-0.53l0.11-11.87
    		c0-0.28,0.14-0.42,0.42-0.42h40.28c0.35,0,0.53,0.14,0.53,0.42v11.87c0,0.35-0.14,0.53-0.42,0.53h-13.89l0.11,60.42
    		c0,0.35-0.14,0.53-0.42,0.53H92.89z" />
            <path class="st0" d="M125.11,120.39c-0.28,0-0.42-0.18-0.42-0.53l0.11-72.82c0-0.28,0.18-0.42,0.53-0.42h11.77
    		c0.35,0,0.53,0.14,0.53,0.42l-0.11,28.83h15.9V47.04c0-0.28,0.14-0.42,0.42-0.42h11.77c0.35,0,0.53,0.14,0.53,0.42l0.21,72.82
    		c0,0.35-0.18,0.53-0.53,0.53h-11.87c-0.35,0-0.53-0.18-0.53-0.53V88.69h-15.9v31.16c0,0.35-0.14,0.53-0.42,0.53H125.11z" />
            <path class="st0" d="M175.46,120.39c-0.28,0-0.42-0.18-0.42-0.53l0.11-72.82c0-0.28,0.14-0.42,0.42-0.42h34.03
    		c0.28,0,0.42,0.18,0.42,0.53v11.87c0,0.28-0.14,0.42-0.42,0.42h-21.73v16.54h21.73c0.28,0,0.42,0.14,0.42,0.42l0.11,11.98
    		c0,0.28-0.14,0.42-0.42,0.42h-21.84v18.55h21.84c0.28,0,0.42,0.18,0.42,0.53v12.08c0,0.28-0.14,0.42-0.42,0.42H175.46z" />
            <path class="st0" d="M219.98,120.39c-0.28,0-0.42-0.18-0.42-0.53l0.21-72.82c0-0.28,0.14-0.42,0.42-0.42h21.41
    		c3.82,0,7.33,0.94,10.55,2.81c3.21,1.87,5.78,4.38,7.69,7.53c1.91,3.15,2.86,6.7,2.86,10.65c0,2.62-0.39,4.97-1.17,7.05
    		c-0.78,2.08-1.7,3.85-2.76,5.3c-1.06,1.45-2.01,2.53-2.86,3.23c3.82,4.24,5.72,9.22,5.72,14.95l0.11,21.73
    		c0,0.35-0.18,0.53-0.53,0.53h-11.98c-0.28,0-0.42-0.11-0.42-0.32V98.13c0-2.54-0.9-4.75-2.7-6.62c-1.8-1.87-4.01-2.81-6.62-2.81h-7
    		l-0.11,31.16c0,0.35-0.14,0.53-0.42,0.53H219.98z M232.49,75.97h9.12c2.19,0,4.13-0.81,5.83-2.44c1.7-1.62,2.54-3.6,2.54-5.94
    		c0-2.26-0.83-4.2-2.49-5.83c-1.66-1.62-3.62-2.44-5.88-2.44h-9.12V75.97z" />
            <path class="st0" d="M304.35,120.49c-4.17,0-7.83-1.02-10.97-3.07c-3.15-2.05-5.6-4.63-7.37-7.74c-1.77-3.11-2.65-6.22-2.65-9.33
    		v-7c0-2.4,0.56-4.73,1.7-7c1.13-2.26,2.61-4.27,4.45-6.04c-1.48-1.62-2.65-3.62-3.5-5.99c-0.85-2.37-1.27-5-1.27-7.9
    		c0-3.67,0.86-7.01,2.6-10.02c1.73-3,4.06-5.39,7-7.15c2.93-1.77,6.2-2.65,9.8-2.65h14.31c0.49,0,0.74,0.25,0.74,0.74v11.24
    		c0,0.42-0.21,0.64-0.64,0.64h-14.42c-1.77,0-3.3,0.71-4.61,2.12c-1.31,1.41-1.96,3.11-1.96,5.09c0,2.4,0.55,4.28,1.64,5.62
    		c1.09,1.34,2.74,2.01,4.93,2.01h28.83c0.35,0,0.53,0.18,0.53,0.53v11.77c0,0.28-0.14,0.42-0.42,0.42h-9.33l-0.11,33.18
    		c0,0.28-0.14,0.42-0.42,0.42L304.35,120.49z M304.35,107.77l6.89-0.11l0.11-20.88h-7.31c-1.48,0-2.85,0.37-4.08,1.11
    		c-1.24,0.74-2.21,1.61-2.92,2.6c-0.71,0.99-1.06,1.94-1.06,2.86v7c0,1.06,0.33,2.17,1.01,3.34c0.67,1.17,1.64,2.14,2.92,2.92
    		C301.17,107.39,302.66,107.77,304.35,107.77z" />
            <path class="st0" d="M372.72,121.45c-3.82,0-7.3-0.97-10.44-2.92c-3.15-1.94-5.65-4.52-7.53-7.74c-1.87-3.21-2.81-6.77-2.81-10.65
    		v-4.88c0-0.35,0.18-0.53,0.53-0.53h11.87c0.28,0,0.42,0.18,0.42,0.53v4.88c0,2.33,0.78,4.33,2.33,5.99
    		c1.55,1.66,3.43,2.49,5.62,2.49c2.19,0,4.06-0.85,5.62-2.54c1.55-1.7,2.33-3.67,2.33-5.94c0-2.61-1.7-4.88-5.09-6.78
    		c-1.13-0.64-2.9-1.62-5.3-2.97c-2.4-1.34-4.66-2.61-6.78-3.82c-3.89-2.26-6.77-5.1-8.64-8.53c-1.87-3.43-2.81-7.3-2.81-11.61
    		c0-3.96,0.95-7.51,2.86-10.65c1.91-3.14,4.43-5.63,7.58-7.47c3.14-1.84,6.55-2.76,10.23-2.76c3.75,0,7.19,0.94,10.34,2.81
    		c3.14,1.87,5.65,4.38,7.53,7.53c1.87,3.15,2.81,6.66,2.81,10.55v8.69c0,0.28-0.14,0.42-0.42,0.42H381.1
    		c-0.28,0-0.42-0.14-0.42-0.42l-0.11-8.69c0-2.47-0.78-4.49-2.33-6.04c-1.56-1.55-3.39-2.33-5.51-2.33c-2.19,0-4.06,0.83-5.62,2.49
    		c-1.56,1.66-2.33,3.62-2.33,5.88c0,2.33,0.49,4.28,1.48,5.83c0.99,1.56,2.79,3.04,5.41,4.45c0.35,0.21,1.04,0.58,2.07,1.11
    		c1.02,0.53,2.14,1.13,3.34,1.8c1.2,0.67,2.28,1.26,3.23,1.75c0.95,0.5,1.54,0.81,1.75,0.95c3.53,1.98,6.32,4.4,8.37,7.26
    		c2.05,2.86,3.07,6.38,3.07,10.55c0,4.03-0.94,7.65-2.81,10.87c-1.87,3.22-4.38,5.76-7.53,7.63
    		C380.02,120.51,376.54,121.45,372.72,121.45z" />
            <path class="st0" d="M420.53,121.45c-3.82,0-7.3-0.97-10.44-2.92c-3.15-1.94-5.67-4.52-7.58-7.74c-1.91-3.21-2.86-6.77-2.86-10.65
    		l0.11-33.6c0-3.89,0.94-7.42,2.81-10.6c1.87-3.18,4.4-5.72,7.58-7.63c3.18-1.91,6.64-2.86,10.39-2.86c3.82,0,7.28,0.95,10.39,2.86
    		c3.11,1.91,5.6,4.45,7.47,7.63c1.87,3.18,2.81,6.71,2.81,10.6l0.11,33.6c0,3.89-0.94,7.44-2.81,10.65
    		c-1.87,3.22-4.38,5.79-7.53,7.74C427.82,120.47,424.34,121.45,420.53,121.45z M420.53,108.62c2.12,0,3.98-0.86,5.57-2.6
    		c1.59-1.73,2.38-3.69,2.38-5.88l-0.11-33.6c0-2.33-0.74-4.31-2.23-5.94c-1.48-1.62-3.36-2.44-5.62-2.44c-2.19,0-4.06,0.8-5.62,2.39
    		c-1.56,1.59-2.33,3.59-2.33,5.99v33.6c0,2.33,0.78,4.33,2.33,5.99C416.46,107.79,418.33,108.62,420.53,108.62z" />
            <path class="st0" d="M450.31,120.39c-0.57,0-0.85-0.25-0.85-0.74l-0.11-72.19c0-0.56,0.28-0.85,0.85-0.85h9.54l17.91,41.76
    		l-0.53-40.92c0-0.56,0.32-0.85,0.95-0.85h10.49c0.42,0,0.64,0.28,0.64,0.85l0.11,72.29c0,0.42-0.18,0.64-0.53,0.64h-9.33
    		l-18.34-39.01l0.74,38.16c0,0.57-0.32,0.85-0.95,0.85H450.31z" />
            <path class="st0" d="M514.65,120.39c-0.28,0-0.42-0.18-0.42-0.53l0.21-72.82c0-0.28,0.14-0.42,0.42-0.42h20.35
    		c4.03,0,7.63,0.97,10.81,2.92c3.18,1.94,5.69,4.5,7.53,7.69c1.84,3.18,2.76,6.64,2.76,10.39c0,3.04-0.69,5.87-2.07,8.48
    		c-1.38,2.62-3.02,4.74-4.93,6.36c2.05,2.05,3.64,4.42,4.77,7.1c1.13,2.69,1.7,5.51,1.7,8.48c0,4.1-0.99,7.84-2.97,11.24
    		c-1.98,3.39-4.65,6.09-8,8.11c-3.36,2.01-7.09,3.02-11.18,3.02H514.65z M527.05,107.46h6.57c2.54,0,4.73-0.94,6.57-2.81
    		c1.84-1.87,2.76-4.08,2.76-6.62c0-2.54-0.92-4.73-2.76-6.57c-1.84-1.84-4.03-2.76-6.57-2.76h-6.47L527.05,107.46z M527.16,75.87
    		h8.06c2.47,0,4.47-0.86,5.99-2.6c1.52-1.73,2.28-3.62,2.28-5.67c0-2.26-0.81-4.22-2.44-5.88c-1.63-1.66-3.57-2.49-5.83-2.49h-8.06
    		V75.87z" />
            <path class="st0" d="M557.69,119.86l13.14-72.82c0.07-0.28,0.25-0.42,0.53-0.42h15.37c0.28,0,0.46,0.14,0.53,0.42l12.61,72.82
    		c0.07,0.35-0.07,0.53-0.42,0.53h-11.77c-0.28,0-0.46-0.18-0.53-0.53l-1.17-7.74h-14.42l-1.17,7.74c-0.07,0.35-0.25,0.53-0.53,0.53
    		h-11.77C557.83,120.39,557.69,120.21,557.69,119.86z M573.69,100.78h10.18l-4.35-29.79l-0.64-3.92l-0.42,3.92L573.69,100.78z" />
            <path class="st0" d="M607.51,120.39c-0.57,0-0.85-0.25-0.85-0.74l-0.11-72.19c0-0.56,0.28-0.85,0.85-0.85h9.54l17.91,41.76
    		l-0.53-40.92c0-0.56,0.32-0.85,0.95-0.85h10.49c0.42,0,0.64,0.28,0.64,0.85l0.11,72.29c0,0.42-0.18,0.64-0.53,0.64h-9.33
    		l-18.34-39.01l0.74,38.16c0,0.57-0.32,0.85-0.95,0.85H607.51z" />
            <path class="st0" d="M656.26,120.39c-0.35,0-0.53-0.18-0.53-0.53l0.21-72.82c0-0.28,0.14-0.42,0.42-0.42l19.82-0.11
    		c3.89-0.07,7.44,0.85,10.65,2.76c3.21,1.91,5.78,4.47,7.69,7.69c1.91,3.22,2.86,6.77,2.86,10.65v30.42c0,4.1-0.99,7.83-2.97,11.18
    		c-1.98,3.36-4.63,6.03-7.95,8c-3.32,1.98-7.07,3-11.24,3.07L656.26,120.39z M668.67,107.35h6.57c2.61,0,4.82-0.92,6.62-2.76
    		s2.7-4.03,2.7-6.57V67.49c0-2.26-0.83-4.22-2.49-5.88c-1.66-1.66-3.62-2.45-5.88-2.39l-7.42,0.11L668.67,107.35z" />
          </g>
        </svg>
